<svg width="139" height="42" viewBox="0 0 139 42" fill="none" xmlns="http://www.w3.org/2000/svg">
<path d="M17.9279 5.38666C20.4529 5.38666 22.8096 5.72333 25.0822 6.48085C27.3547 7.23836 29.2906 8.33255 30.9739 9.84758C32.6573 11.3626 34.004 13.2143 34.9299 15.4869C35.8557 17.7594 36.3607 20.4528 36.3607 23.4828C36.3607 26.5129 35.8557 29.2063 34.9299 31.4788C34.004 33.7514 32.6573 35.6031 30.9739 37.1181C29.2906 38.6331 27.3547 39.7273 25.0822 40.4848C22.8096 41.2424 20.4529 41.579 17.9279 41.579H0V5.38666H17.9279ZM18.6012 33.8356C19.5271 33.8356 20.5371 33.6672 21.6313 33.2464C22.7255 32.8255 23.6513 32.2364 24.5772 31.3947C25.503 30.553 26.2605 29.4588 26.8497 28.1963C27.4389 26.8496 27.6914 25.3346 27.6914 23.567C27.6914 21.8837 27.4389 20.3686 26.8497 19.0219C26.2605 17.7594 25.503 16.6652 24.6613 15.8235C23.7355 14.9818 22.8096 14.3085 21.7154 13.8877C20.6212 13.4668 19.6112 13.2985 18.6854 13.2985H5.72345C6.14429 13.2985 6.56513 13.2985 6.9018 13.3826C7.23848 13.4668 7.49098 13.551 7.74349 13.6352C7.99599 13.7193 8.16433 13.8877 8.33266 14.1402C8.501 14.3927 8.501 14.6452 8.501 14.9818V33.9197H18.6012V33.8356Z" fill="#fff"/>
<path d="M46.545 16.3285C46.2083 17.0019 45.7875 17.5069 45.1983 17.9277C44.6933 18.3486 44.0199 18.6853 43.3466 18.9378C42.6733 19.1903 41.9999 19.2744 41.2424 19.3586C40.4849 19.4428 39.8115 19.4428 39.1382 19.4428V11.6151C39.8957 11.6151 40.6532 11.5309 41.5791 11.4468C42.5049 11.2784 43.3466 11.0259 44.1883 10.6051C45.03 10.1843 45.7033 9.51091 46.2083 8.66922C46.7975 7.82754 47.05 6.73335 47.05 5.30249H55.551V41.4949H47.1342V16.4969C47.1342 15.9077 47.1342 15.2344 47.2183 14.561C47.3025 13.8877 47.3867 13.2143 47.4708 12.6251H47.3867C47.3025 13.2143 47.2183 13.8877 47.05 14.561C46.9658 15.2344 46.7975 15.8235 46.545 16.3285Z" fill="#fff"/>
<path d="M87.956 41.579H79.2866V33.3305H60.1804V28.9538L78.6133 5.38666H87.956V27.1863H93.7636L94.6053 33.3305H89.8918C89.3027 33.3305 88.7135 33.1622 88.1243 32.9097C87.5351 32.6572 87.0301 32.3205 86.6093 31.8997L86.5251 31.9839C86.946 32.4047 87.2826 32.9097 87.5351 33.4989C87.7876 34.0881 87.956 34.6772 87.956 35.2664V41.579ZM70.7856 26.6812H79.3708V14.8135L70.7856 26.6812Z" fill="#fff"/>
<path d="M105.884 29.543C105.968 31.1422 106.81 32.3205 108.325 32.9939C109.84 33.6672 111.775 34.0039 114.216 34.0881C114.385 34.0881 114.553 34.0881 114.721 34.0881C117.583 34.0881 119.856 33.8356 121.539 33.2464C123.222 32.6572 124.064 31.563 124.064 30.048C124.064 29.1221 123.391 28.4488 122.128 28.0279C120.866 27.6071 119.182 27.3546 117.246 27.1021C115.311 26.8496 113.206 26.5971 110.934 26.3446C108.661 26.0921 106.557 25.5871 104.621 24.9137C102.685 24.2404 101.086 23.2303 99.7394 21.9678C98.3927 20.7053 97.8035 18.8536 97.8035 16.5811C97.8035 14.3927 98.3085 12.541 99.2344 11.1101C100.16 9.59508 101.423 8.41672 103.022 7.49087C104.621 6.56502 106.389 5.89167 108.409 5.555C110.429 5.13416 112.449 4.96582 114.469 4.96582C114.637 4.96582 114.89 4.96582 115.058 4.96582C117.331 4.96582 119.435 5.21833 121.455 5.63917C123.391 6.06001 125.158 6.73336 126.589 7.65921C128.02 8.58506 129.198 9.76342 130.04 11.1943C130.882 12.6251 131.303 14.3085 131.387 16.3285L123.307 16.5811C123.222 15.1502 122.465 14.1402 121.118 13.551C119.771 12.9618 117.751 12.7093 115.058 12.7093C112.28 12.7093 110.092 13.046 108.577 13.6352C107.062 14.2243 106.305 15.1502 106.305 16.4127C106.305 17.2544 106.978 17.8436 108.24 18.2644C109.587 18.6011 111.186 18.8536 113.122 19.1061C115.058 19.2744 117.162 19.5269 119.435 19.8636C121.707 20.1161 123.812 20.6211 125.747 21.2945C127.683 21.9678 129.282 22.9778 130.629 24.3245C131.892 25.6712 132.565 27.4388 132.565 29.7113C132.565 31.058 132.313 32.4889 131.808 33.9197C131.303 35.3506 130.377 36.6973 129.03 37.8756C127.683 39.054 125.832 40.064 123.475 40.8215C121.118 41.579 118.088 41.9999 114.385 41.9999C111.102 41.9999 108.409 41.6632 106.22 40.9899C104.032 40.3165 102.349 39.3907 101.086 38.2965C99.8236 37.2023 98.9819 35.8556 98.3927 34.4247C97.8877 32.9939 97.6352 31.4788 97.551 29.8796L105.884 29.543Z" fill="#fff"/>
<!-- <path d="M138.373 2.77755C138.373 4.37675 137.11 5.55511 135.511 5.55511C133.912 5.55511 132.649 4.29258 132.649 2.77755C132.649 1.26252 133.912 0 135.511 0C137.11 0 138.373 1.26252 138.373 2.77755ZM133.323 2.77755C133.323 4.04008 134.249 4.96593 135.511 4.96593C136.689 4.96593 137.615 3.95591 137.615 2.77755C137.615 1.51503 136.689 0.50501 135.511 0.50501C134.249 0.589178 133.323 1.51503 133.323 2.77755ZM135.09 4.20842H134.417V1.43086C134.669 1.34669 135.006 1.34669 135.511 1.34669C136.016 1.34669 136.269 1.43086 136.437 1.51503C136.605 1.5992 136.689 1.8517 136.689 2.10421C136.689 2.44088 136.437 2.60922 136.1 2.77755C136.353 2.86172 136.521 3.11423 136.605 3.4509C136.689 3.87174 136.774 4.04008 136.774 4.12425H136.1C136.016 4.04008 135.932 3.78757 135.848 3.4509C135.764 3.11423 135.595 3.03006 135.259 3.03006H134.922V4.20842H135.09ZM135.09 2.69339H135.427C135.764 2.69339 136.1 2.60922 136.1 2.27255C136.1 2.02004 135.932 1.8517 135.511 1.8517C135.343 1.8517 135.259 1.8517 135.174 1.8517V2.69339H135.09Z" fill="#fff"/> -->
</svg>
